<svg xmlns="http://www.w3.org/2000/svg" version="1.1" xmlns:xlink="http://www.w3.org/1999/xlink" xmlns:svgjs="http://svgjs.dev/svgjs" width="2000" height="363" viewBox="0 0 2000 363">
	<g transform="matrix(1,0,0,1,-1.2119691683838028,-1.3092555455940271)">
		<svg viewBox="0 0 396 72" data-background-color="#39cccc" preserveAspectRatio="xMidYMid meet" height="363" width="2000" xmlns="http://www.w3.org/2000/svg" xmlns:xlink="http://www.w3.org/1999/xlink">
			<g id="tight-bounds" transform="matrix(1,0,0,1,0.23996989533998203,0.25968705036575557)">
				<svg viewBox="0 0 395.52 71.48049728481203" height="71.48049728481203" width="395.52">
					<g>
						<svg viewBox="0 0 525.5266138663567 94.97599033062947" height="71.48049728481203" width="395.52">
							<g transform="matrix(1,0,0,1,130.0066138663567,0)">
								<svg viewBox="0 0 395.52 94.97599033062947" height="94.97599033062947" width="395.52">
									<g id="textblocktransform">
										<svg viewBox="0 0 395.52 94.97599033062947" height="94.97599033062947" width="395.52" id="textblock">
											<g>
												<svg viewBox="0 0 395.52 94.97599033062947" height="94.97599033062947" width="395.52">
													<path d="M394.594 20.371C392.735 10.512 387.435 7.771 387.435 7.771 371.165-2.383 350.86-0.194 332.619 1.265 300.414 1.324 268.339 3.493 236.208 4.656 168.767 4.834 100.749 1.915 33.643 9.112 27.339 11.32-6.54 9.546 1.121 21.632 3.129 26.66 10.456 32.24 10.232 36.854 11.236 37.662 12.631 35.809 13.226 36.972 15.309 40.107 18.711 38.628 21.501 40.482 17.614 45.431 20.403 49.552 23.062 53.87 18.377 54.993 12.371 54.461 9.675 58.188 9.396 60.889 7.89 60.376 6.235 60.258 5.026 60.179 2.59 60.475 2.999 61.323 4.394 64.221-1.594 65.897 2.162 68.736-0.422 71.812 3.948 74.474 3.353 77.806 3.278 78.476 3.687 79.048 4.338 79.206 7.22 80.054 3.018 81.71 3.464 83.504 33.029 95.768 65.104 87.29 95.394 92.929 103.259 88.986 97.346 94.329 100.489 93.501 102.943 92.535 104.728 96.537 107.499 94.27 107.927 93.619 107.276 92.081 108.8 92.377 109.6 92.535 110.307 92.495 110.418 91.588 110.586 90.228 109.117 91.076 108.726 90.366 112.947 86.777 111.906 95.315 115.866 94.96 115.68 93.915 114.528 92.416 116.889 92.613 119.232 91.115 119.306 89.873 121.389 93.244 121.463 93.974 121.835 94.487 122.43 94.841 128.938 91.174 135.409 96.143 142.233 94.487 146.417 92.673 150.433 95.472 154.672 94.782 156.16 94.23 157.666 93.244 159.098 94.901 176.632 95.256 195.319 93.777 211.943 94.96 256.364 92.751 303.836 95.867 350.674 92.949 361.719 91.825 373.192 90.228 383.958 88.946 383.958 88.946 392.679 85.436 392.679 69.663S394.538 55.861 394.817 43.301C395.096 30.742 396.398 30.229 394.538 20.371Z" opacity="1" fill="#c0c0c0" data-fill-palette-color="tertiary"></path>
													<g transform="matrix(1,0,0,1,55.76832,26.230666666666668)">
														<svg width="283.98335999999995" viewBox="3.85 -39.2 351.32 52.6" height="42.514656997296136" data-palette-color="#61777f">
															<path d="M37.15-31.4L37.15-31.4 37.15-5.15Q37.15-2.45 38.75-1.6L38.75-1.6Q36.95 0.55 34.2 0.55L34.2 0.55Q29.3 0.55 29.3-5.4L29.3-5.4 29.3-16.15 13.4-16.15 13.4-5.15Q13.4-2.45 15-1.6L15-1.6Q13.1 0.55 10.5 0.55 7.9 0.55 6.7-0.9 5.5-2.35 5.5-5.4L5.5-5.4 5.5-31.7Q5.5-34.3 3.85-35.15L3.85-35.15Q5.65-37.3 8.4-37.3L8.4-37.3Q13.4-37.3 13.4-31.4L13.4-31.4 13.4-21.25 29.3-21.25 29.3-31.7Q29.3-34.25 27.6-35.15L27.6-35.15Q29.5-37.3 32.13-37.3 34.75-37.3 35.95-35.85 37.15-34.4 37.15-31.4ZM58.2-16.55Q59.1-16.65 59.55-17.13 60-17.6 60-18.95 60-20.3 59.22-21.43 58.45-22.55 57.1-22.55 55.75-22.55 54.55-20.85 53.35-19.15 52.95-15.9L52.95-15.9 58.2-16.55ZM59.05-4.9L59.05-4.9Q63.2-4.9 66-8.05L66-8.05Q67.15-7.55 67.15-5.95L67.15-5.95Q67.15-3.55 64.3-1.5 61.45 0.55 57.6 0.55L57.6 0.55Q51.65 0.55 48.32-2.7 45-5.95 45-12.03 45-18.1 48.65-22.4 52.3-26.7 57.9-26.7L57.9-26.7Q62.2-26.7 65-23.93 67.8-21.15 67.8-17.6L67.8-17.6Q67.8-14.85 66.5-13.65 65.2-12.45 62.05-12.35L62.05-12.35 52.8-12.1Q53.15-4.9 59.05-4.9ZM79.8-6.85L79.8-6.85Q79.8-4.4 82.6-4.4L82.6-4.4Q84.65-4.4 86.3-6.3L86.3-6.3 86.3-11.15Q79.8-10.8 79.8-6.85ZM94.15-17.7L94.15-17.7 94.15-6.35Q94.15-3.2 96.85-2.35L96.85-2.35Q95.95-1.1 94.42-0.28 92.9 0.55 91.2 0.55L91.2 0.55Q87.5 0.55 86.6-2.75L86.6-2.75Q83.5 0.55 78.85 0.55L78.85 0.55Q75.4 0.55 73.35-1.15 71.3-2.85 71.3-5.95L71.3-5.95Q71.3-9.75 75.27-12.03 79.25-14.3 86.3-14.4L86.3-14.4 86.3-19.15Q86.3-22.5 83.6-22.5L83.6-22.5Q82.5-22.5 81.77-21.83 81.05-21.15 81.05-20.03 81.05-18.9 81.85-17.95L81.85-17.95Q80.15-16.15 77.57-16.15 75-16.15 73.77-17.3 72.55-18.45 72.55-20.3L72.55-20.3Q72.55-23.1 75.97-24.9 79.4-26.7 83.97-26.7 88.55-26.7 91.35-24.55 94.15-22.4 94.15-17.7ZM109.49-33.25L109.49-33.25 109.49-5.15Q109.49-2.45 111.14-1.6L111.14-1.6Q109.24 0.55 106.54 0.55L106.54 0.55Q101.64 0.55 101.64-5.4L101.64-5.4 101.64-33.55Q101.64-36.05 99.94-37.1L99.94-37.1Q101.84-39.2 104.54-39.2L104.54-39.2Q109.49-39.2 109.49-33.25ZM125.74-21.35L125.34-21.35 125.34-7.85Q125.34-4.7 127.79-4.7L127.79-4.7Q130.49-4.7 132.79-7.15L132.79-7.15Q133.49-7.15 133.97-6.58 134.44-6 134.44-5.05L134.44-5.05Q134.44-3 131.94-1.23 129.44 0.55 125.77 0.55 122.09 0.55 119.79-1.3 117.49-3.15 117.49-6.95L117.49-6.95 117.49-21.35Q115.69-21.4 114.79-22.23 113.89-23.05 113.89-24.3 113.89-25.55 114.94-26.3L114.94-26.3Q116.14-26.15 117.49-26.15L117.49-26.15 117.49-27.65Q117.49-30.25 115.79-31.15L115.79-31.15Q117.69-33.3 120.32-33.3 122.94-33.3 124.14-31.85 125.34-30.4 125.34-27.35L125.34-27.35 125.34-26.15 132.89-26.15Q133.24-25.75 133.24-25.15L133.24-25.15Q133.24-23.6 131.57-22.48 129.89-21.35 125.74-21.35L125.74-21.35ZM163.24-17.7L163.24-17.7 163.24-5.15Q163.24-2.45 164.84-1.6L164.84-1.6Q163.04 0.55 160.29 0.55L160.29 0.55Q155.39 0.55 155.39-5.4L155.39-5.4 155.39-16.55Q155.39-18.35 154.51-19.38 153.64-20.4 152.04-20.4 150.44-20.4 148.94-18.93 147.44-17.45 146.79-14.55L146.79-14.55 146.79-5.15Q146.79-2.45 148.44-1.6L148.44-1.6Q146.54 0.55 143.84 0.55L143.84 0.55Q138.94 0.55 138.94-5.4L138.94-5.4 138.94-33.55Q138.94-36.05 137.24-37.1L137.24-37.1Q139.14-39.2 141.84-39.2L141.84-39.2Q146.79-39.2 146.79-33.25L146.79-33.25 146.79-21.5Q148.14-24.05 150.51-25.38 152.89-26.7 156.01-26.7 159.14-26.7 161.19-24.4 163.24-22.1 163.24-17.7ZM188.69-21.1Q189.24-22.6 189.24-23.8 189.24-25 188.69-25.8L188.69-25.8Q190.09-26.7 191.94-26.7L191.94-26.7Q194.59-26.7 195.89-24.7L195.89-24.7Q196.54-23.7 196.54-22.35 196.54-21 195.89-19.25L195.89-19.25 186.34 6.6Q183.84 13.4 178.44 13.4L178.44 13.4Q176.04 13.4 174.49 12.15 172.94 10.9 172.94 9.18 172.94 7.45 173.84 6L173.84 6Q175.19 7.1 176.44 7.1 177.69 7.1 178.66 6.38 179.64 5.65 180.09 4.3L180.09 4.3 181.39 0.5Q181.24 0.5 181.14 0.5L181.14 0.5Q179.24 0.5 177.54-0.98 175.84-2.45 174.99-5.2L174.99-5.2 170.24-20.4Q169.69-22.2 169.26-23.08 168.84-23.95 168.04-24.55L168.04-24.55Q170.29-26.7 172.64-26.7 174.99-26.7 176.29-25.35 177.59-24 178.34-21.05L178.34-21.05 182.94-4.15 188.69-21.1ZM248.83-31.4L248.83-31.4 248.83-5.15Q248.83-2.45 250.43-1.6L250.43-1.6Q248.63 0.55 245.88 0.55L245.88 0.55Q240.98 0.55 240.98-5.4L240.98-5.4 240.98-16.15 225.08-16.15 225.08-5.15Q225.08-2.45 226.68-1.6L226.68-1.6Q224.78 0.55 222.18 0.55 219.58 0.55 218.38-0.9 217.18-2.35 217.18-5.4L217.18-5.4 217.18-31.7Q217.18-34.3 215.53-35.15L215.53-35.15Q217.33-37.3 220.08-37.3L220.08-37.3Q225.08-37.3 225.08-31.4L225.08-31.4 225.08-21.25 240.98-21.25 240.98-31.7Q240.98-34.25 239.28-35.15L239.28-35.15Q241.18-37.3 243.81-37.3 246.43-37.3 247.63-35.85 248.83-34.4 248.83-31.4ZM269.88-16.55Q270.78-16.65 271.23-17.13 271.68-17.6 271.68-18.95 271.68-20.3 270.9-21.43 270.13-22.55 268.78-22.55 267.43-22.55 266.23-20.85 265.03-19.15 264.63-15.9L264.63-15.9 269.88-16.55ZM270.73-4.9L270.73-4.9Q274.88-4.9 277.68-8.05L277.68-8.05Q278.83-7.55 278.83-5.95L278.83-5.95Q278.83-3.55 275.98-1.5 273.13 0.55 269.28 0.55L269.28 0.55Q263.33 0.55 260-2.7 256.68-5.95 256.68-12.03 256.68-18.1 260.33-22.4 263.98-26.7 269.58-26.7L269.58-26.7Q273.88-26.7 276.68-23.93 279.48-21.15 279.48-17.6L279.48-17.6Q279.48-14.85 278.18-13.65 276.88-12.45 273.73-12.35L273.73-12.35 264.48-12.1Q264.83-4.9 270.73-4.9ZM291.48-6.85L291.48-6.85Q291.48-4.4 294.28-4.4L294.28-4.4Q296.33-4.4 297.98-6.3L297.98-6.3 297.98-11.15Q291.48-10.8 291.48-6.85ZM305.83-17.7L305.83-17.7 305.83-6.35Q305.83-3.2 308.53-2.35L308.53-2.35Q307.63-1.1 306.1-0.28 304.58 0.55 302.88 0.55L302.88 0.55Q299.18 0.55 298.28-2.75L298.28-2.75Q295.18 0.55 290.53 0.55L290.53 0.55Q287.08 0.55 285.03-1.15 282.98-2.85 282.98-5.95L282.98-5.95Q282.98-9.75 286.95-12.03 290.93-14.3 297.98-14.4L297.98-14.4 297.98-19.15Q297.98-22.5 295.28-22.5L295.28-22.5Q294.18-22.5 293.45-21.83 292.73-21.15 292.73-20.03 292.73-18.9 293.53-17.95L293.53-17.95Q291.83-16.15 289.25-16.15 286.68-16.15 285.45-17.3 284.23-18.45 284.23-20.3L284.23-20.3Q284.23-23.1 287.65-24.9 291.08-26.7 295.65-26.7 300.23-26.7 303.03-24.55 305.83-22.4 305.83-17.7ZM313.32-5.4L313.32-5.4 313.32-21.05Q313.32-23.65 311.62-24.55L311.62-24.55Q313.52-26.7 316.22-26.7L316.22-26.7Q320.67-26.7 321.12-21.9L321.12-21.9Q323.12-26.7 327.77-26.7L327.77-26.7Q330.12-26.7 331.65-25.3 333.17-23.9 333.17-21.55 333.17-19.2 332-17.82 330.82-16.45 328.42-16.45L328.42-16.45Q328.12-16.45 327.12-16.55L327.12-16.55Q327.32-17.45 327.32-17.7L327.32-17.7Q327.32-18.95 326.6-19.68 325.87-20.4 324.82-20.4L324.82-20.4Q322.12-20.4 321.17-16.3L321.17-16.3 321.17-5.15Q321.17-2.45 322.82-1.6L322.82-1.6Q320.92 0.55 318.22 0.55L318.22 0.55Q313.32 0.55 313.32-5.4ZM346.47-21.35L346.07-21.35 346.07-7.85Q346.07-4.7 348.52-4.7L348.52-4.7Q351.22-4.7 353.52-7.15L353.52-7.15Q354.22-7.15 354.69-6.58 355.17-6 355.17-5.05L355.17-5.05Q355.17-3 352.67-1.23 350.17 0.55 346.5 0.55 342.82 0.55 340.52-1.3 338.22-3.15 338.22-6.95L338.22-6.95 338.22-21.35Q336.42-21.4 335.52-22.23 334.62-23.05 334.62-24.3 334.62-25.55 335.67-26.3L335.67-26.3Q336.87-26.15 338.22-26.15L338.22-26.15 338.22-27.65Q338.22-30.25 336.52-31.15L336.52-31.15Q338.42-33.3 341.05-33.3 343.67-33.3 344.87-31.85 346.07-30.4 346.07-27.35L346.07-27.35 346.07-26.15 353.62-26.15Q353.97-25.75 353.97-25.15L353.97-25.15Q353.97-23.6 352.3-22.48 350.62-21.35 346.47-21.35L346.47-21.35Z" opacity="1" transform="matrix(1,0,0,1,0,0)" fill="#ffffff" class="wordmark-text-0" data-fill-palette-color="quaternary" id="text-0"></path>
														</svg>
													</g>
												</svg>
											</g>
										</svg>
									</g>
								</svg>
							</g>
							<g transform="matrix(1,0,0,1,0,3.7357222863380883)">
								<svg viewBox="0 0 119.96992370106301 87.5045457579533" height="87.5045457579533" width="119.96992370106301">
									<g>
										<svg xmlns="http://www.w3.org/2000/svg" xmlns:xlink="http://www.w3.org/1999/xlink" version="1.1" x="0" y="0" viewBox="0.20762061525479866 4.509571735127075 31.56164704690156 23.020666372129217" style="enable-background:new 0 0 32 32;" xml:space="preserve" height="87.5045457579533" width="119.96992370106301" class="icon-icon-0" data-fill-palette-color="accent" id="icon-0">
											<path d="M31.6 16.7C31.1 15.9 30.2 16.3 29.4 16.4 29 16.5 27.3 17 27 16.5 26.8 16.2 27.9 14.3 28 13.9 28.5 12.5 29.3 9.3 28.4 7.9 26.7 5.1 21.7 6.3 19.4 7.5 18.5 7.9 16.2 10.1 15.4 9.8 14.4 9.4 13.5 6.6 12.4 5.8 9.4 3.6 5.3 4.2 4 7.7 3.4 9.4 3 11.2 3.1 13.1 3.2 13.8 4.3 16.8 4.1 17.2 3.6 18.1 0.8 16.6 0.3 17.6-0.3 18.8 2.2 18.7 2.7 18.7 4.8 18.8 5.1 18.8 6.3 20.6 7.2 22 8.2 23.3 9.3 24.5 10.4 25.8 12 27.8 13.8 27.5 15.1 27.2 16.8 26.2 18 25.6 21.4 23.9 23.7 21.5 26 18.5 27 17.2 29.4 18.6 30.7 18.2 31.4 18 32.1 17.6 31.6 16.7M20.4 22.6C18.7 23.7 15.4 26.3 13.3 26.3 11.5 26.3 10.1 23.9 9 22.5 7.8 21.1 5.1 18.8 8 18.5 8.4 18.5 8.8 18.6 9.2 18.5 9.4 18.4 10.9 17.9 10.9 17.9 11.6 18 10.2 24.4 12.7 23.9 15.1 23.5 14.1 18.9 16.5 18.2 17 18 23.4 18 23.6 18.3 24.5 19.2 21.3 21.9 20.4 22.6M24.8 16.9C23.9 17.4 20.9 17 19.9 17 18.5 16.9 16.1 16.2 14.9 16.8 13.7 17.5 13.9 19.3 13 20.3 12.4 18.9 13.2 16.1 13.3 14.6 13.7 12.9 12.4 10.8 11.2 12.6 10.5 13.6 10.9 15.5 9.9 16.5 9.3 17.1 6.9 17.6 6 17.2 4.8 16.7 4.6 14.9 4.4 13.7 4 10.8 4.7 6 8.3 5.6 11.5 5.4 13.5 8.2 14.3 11 15 13.5 15.5 12.7 16.8 10.9 17.7 9.6 19.7 8.4 21.2 7.8 22.6 7.3 25.2 6.8 26.5 7.9 27.6 8.9 27.1 10.5 26.8 11.9 26.6 13.3 26.1 16.2 24.8 16.9" fill="#e35d6a" data-fill-palette-color="accent"></path>
										</svg>
									</g>
								</svg>
							</g>
						</svg>
					</g>
					<defs></defs>
				</svg>
				<rect width="395.52" height="71.48049728481203" fill="none" stroke="none" visibility="hidden"></rect>
			</g>
		</svg>
	</g>
</svg>